<svg xmlns="http://www.w3.org/2000/svg" viewBox="0 0 500 500"><g id="freepik--background-complete--inject-69"><path d="M421.41,204.28C419.68,214,411.13,222,411.13,222s-11.5-2.11-18.19-9.38c-5.58-6.06-5.6-14.38-.55-17.67,7.24-4.72,13.32,8.51,13.32,8.51s-2-14.42,6.65-14.34C418.39,189.15,422.85,196.17,421.41,204.28Z" style="fill:#ebebeb"></path><path d="M447.32,181.08c-6,4.09-14.61,3.68-14.61,3.68s-4.79-7.14-4.4-14.4c.33-6.06,4.7-10.34,9-9.37,6.2,1.39,2.36,11.39,2.36,11.39s6.57-8.46,11-3.87C453.74,171.72,452.34,177.67,447.32,181.08Z" style="fill:#ebebeb"></path><path d="M198.86,331.41c.51,7.25-4.17,14.48-4.17,14.48s-8.59.55-14.66-3.44c-5.07-3.33-6.58-9.26-3.56-12.51,4.32-4.67,11,3.68,11,3.68s-4-9.93,2.17-11.43C194,321.15,198.43,325.36,198.86,331.41Z" style="fill:#ebebeb"></path><path d="M415.7,153.07c-2.43,4.15-7.68,6.36-7.68,6.36s-4.89-2.91-6.73-7.35c-1.53-3.71-.13-7.51,2.73-8.17,4.1-.94,4.65,6.13,4.65,6.13s1.51-6.93,5.45-5.43C416.87,145.65,417.73,149.6,415.7,153.07Z" style="fill:#ebebeb"></path><path d="M173.81,302.81c-2.43,4.16-7.68,6.36-7.68,6.36s-4.9-2.9-6.73-7.35c-1.53-3.71-.14-7.51,2.72-8.16,4.11-.94,4.66,6.13,4.66,6.13s1.51-6.93,5.45-5.44C175,295.39,175.83,299.35,173.81,302.81Z" style="fill:#ebebeb"></path><polygon points="47.48 227.93 98.11 227.69 148.74 227.6 250 227.43 351.26 227.6 401.89 227.68 452.52 227.93 401.89 228.17 351.26 228.26 250 228.43 148.74 228.26 98.11 228.17 47.48 227.93" style="fill:#ebebeb"></polygon><polygon points="47.48 262.51 98.11 262.27 148.74 262.18 250 262.01 351.26 262.18 401.89 262.27 452.52 262.51 401.89 262.76 351.26 262.85 250 263.01 148.74 262.84 98.11 262.75 47.48 262.51" style="fill:#ebebeb"></polygon><polygon points="47.48 297.1 98.11 296.85 148.74 296.76 250 296.6 351.26 296.76 401.89 296.85 452.52 297.1 401.89 297.34 351.26 297.43 250 297.6 148.74 297.43 98.11 297.34 47.48 297.1" style="fill:#ebebeb"></polygon><polygon points="47.48 331.68 98.11 331.44 148.74 331.35 250 331.18 351.26 331.35 401.89 331.44 452.52 331.68 401.89 331.93 351.26 332.01 250 332.18 148.74 332.01 98.11 331.92 47.48 331.68" style="fill:#ebebeb"></polygon><polygon points="47.48 124.17 98.11 123.93 148.74 123.84 250 123.68 351.26 123.84 401.89 123.93 452.52 124.17 401.89 124.42 351.26 124.51 250 124.67 148.74 124.51 98.11 124.42 47.48 124.17" style="fill:#ebebeb"></polygon><polygon points="47.48 158.76 98.11 158.52 148.74 158.43 250 158.26 351.26 158.43 401.89 158.51 452.52 158.76 401.89 159 351.26 159.09 250 159.26 148.74 159.09 98.11 159 47.48 158.76" style="fill:#ebebeb"></polygon><polygon points="47.48 193.34 98.11 193.1 148.74 193.01 250 192.84 351.26 193.01 401.89 193.1 452.52 193.34 401.89 193.59 351.26 193.68 250 193.84 148.74 193.68 98.11 193.59 47.48 193.34" style="fill:#ebebeb"></polygon><polygon points="47.48 366.26 98.11 366.02 148.74 365.93 250 365.77 351.26 365.93 401.89 366.02 452.52 366.26 401.89 366.51 351.26 366.6 250 366.76 148.74 366.6 98.11 366.51 47.48 366.26" style="fill:#ebebeb"></polygon><polygon points="47.48 400.85 98.11 400.61 148.74 400.52 250 400.35 351.26 400.52 401.89 400.61 452.52 400.85 401.89 401.09 351.26 401.18 250 401.35 148.74 401.18 98.11 401.09 47.48 400.85" style="fill:#ebebeb"></polygon><polygon points="284.58 96 284.83 142.12 284.92 188.25 285.08 280.51 284.92 372.77 284.83 418.9 284.58 444.03 284.34 418.9 284.25 372.77 284.08 280.51 284.25 188.25 284.34 142.12 284.58 96" style="fill:#ebebeb"></polygon><polygon points="250 96 250.24 142.12 250.33 188.25 250.5 280.51 250.33 372.77 250.25 418.9 250 444.03 249.75 418.9 249.67 372.77 249.5 280.51 249.67 188.25 249.76 142.12 250 96" style="fill:#ebebeb"></polygon><polygon points="215.42 96 215.66 142.12 215.75 188.25 215.91 280.51 215.75 372.77 215.66 418.9 215.42 444.03 215.17 418.9 215.08 372.77 214.92 280.51 215.08 188.25 215.17 142.12 215.42 96" style="fill:#ebebeb"></polygon><polygon points="180.83 96 181.07 142.12 181.16 188.25 181.33 280.51 181.16 372.77 181.08 418.9 180.83 444.03 180.59 418.9 180.5 372.77 180.33 280.51 180.5 188.25 180.59 142.12 180.83 96" style="fill:#ebebeb"></polygon><polygon points="388.34 96 388.58 142.12 388.67 188.25 388.84 280.51 388.67 372.77 388.58 418.9 388.34 444.03 388.09 418.9 388 372.77 387.84 280.51 388.01 188.25 388.09 142.12 388.34 96" style="fill:#ebebeb"></polygon><polygon points="353.75 96 354 142.12 354.08 188.25 354.25 280.51 354.08 372.77 354 418.9 353.75 444.03 353.51 418.9 353.42 372.77 353.25 280.51 353.42 188.25 353.51 142.12 353.75 96" style="fill:#ebebeb"></polygon><polygon points="319.17 96 319.41 142.12 319.5 188.25 319.67 280.51 319.5 372.77 319.41 418.9 319.17 444.03 318.92 418.9 318.84 372.77 318.67 280.51 318.84 188.25 318.93 142.12 319.17 96" style="fill:#ebebeb"></polygon><polygon points="422.92 96 423.16 142.12 423.25 188.25 423.42 280.51 423.25 372.77 423.17 418.9 422.92 444.03 422.68 418.9 422.59 372.77 422.42 280.51 422.59 188.25 422.68 142.12 422.92 96" style="fill:#ebebeb"></polygon><polygon points="388.34 96 388.58 142.12 388.67 188.25 388.84 280.51 388.67 372.77 388.58 418.9 388.34 444.03 388.09 418.9 388 372.77 387.84 280.51 388.01 188.25 388.09 142.12 388.34 96" style="fill:#ebebeb"></polygon><polygon points="146.25 96 146.49 142.12 146.58 188.25 146.75 280.51 146.58 372.77 146.49 418.9 146.25 444.03 146 418.9 145.91 372.77 145.75 280.51 145.92 188.25 146 142.12 146.25 96" style="fill:#ebebeb"></polygon><polygon points="111.66 96 111.91 142.12 111.99 188.25 112.16 280.51 112 372.77 111.91 418.9 111.66 444.03 111.42 418.9 111.33 372.77 111.16 280.51 111.33 188.25 111.42 142.12 111.66 96" style="fill:#ebebeb"></polygon><polygon points="77.08 96 77.32 142.12 77.41 188.25 77.58 280.51 77.41 372.77 77.32 418.9 77.08 444.03 76.83 418.9 76.75 372.77 76.58 280.51 76.75 188.25 76.83 142.12 77.08 96" style="fill:#ebebeb"></polygon><rect x="324.05" y="54.02" width="105.16" height="75.91" style="fill:#ebebeb"></rect><rect x="333.97" y="63.95" width="85.31" height="56.06" style="fill:#fff"></rect><rect x="333.97" y="63.95" width="85.31" height="56.06" style="fill:#fff"></rect><rect x="333.97" y="63.94" width="85.31" height="56.06" style="fill:#fff"></rect><g style="opacity:0.2"><polygon points="382.98 63.94 333.97 112.95 333.97 95.34 365.37 63.94 382.98 63.94" style="fill:#ebebeb"></polygon><polygon points="419.28 84.26 419.28 90.06 389.33 120.01 383.52 120.01 419.28 84.26" style="fill:#ebebeb"></polygon><polygon points="351.82 63.94 333.97 81.79 333.97 79.85 349.88 63.94 351.82 63.94" style="fill:#ebebeb"></polygon><polygon points="419.28 102.49 419.28 104.43 403.7 120.01 401.76 120.01 419.28 102.49" style="fill:#ebebeb"></polygon><polygon points="418.8 63.94 362.74 120.01 360.8 120.01 416.87 63.94 418.8 63.94" style="fill:#ebebeb"></polygon></g><rect x="197.42" y="54.02" width="105.16" height="75.91" style="fill:#ebebeb"></rect><rect x="207.35" y="63.95" width="85.31" height="56.06" style="fill:#fff"></rect><rect x="207.35" y="63.94" width="85.31" height="56.06" style="fill:#fff"></rect><g style="opacity:0.2"><polygon points="292.66 71.14 292.66 88.75 261.4 120.01 243.79 120.01 292.66 71.14" style="fill:#ebebeb"></polygon><polygon points="247.22 63.94 207.35 103.83 207.35 98.02 241.43 63.94 247.22 63.94" style="fill:#ebebeb"></polygon><polygon points="222.77 63.94 207.35 79.37 207.35 77.44 220.84 63.94 222.77 63.94" style="fill:#ebebeb"></polygon><polygon points="292.66 100.07 292.66 102.01 274.66 120.01 272.72 120.01 292.66 100.07" style="fill:#ebebeb"></polygon><polygon points="259.38 63.94 207.35 115.97 207.35 114.03 257.44 63.94 259.38 63.94" style="fill:#ebebeb"></polygon></g><rect x="70.8" y="54.02" width="105.16" height="75.91" style="fill:#ebebeb"></rect><rect x="80.72" y="63.95" width="85.31" height="56.06" style="fill:#fff"></rect><g style="opacity:0.2"><polygon points="142.35 63.94 86.29 120.01 80.72 120.01 80.72 107.96 124.74 63.94 142.35 63.94" style="fill:#ebebeb"></polygon><polygon points="166.03 89.92 166.03 107.55 153.57 120.01 135.95 120.01 166.03 89.92" style="fill:#ebebeb"></polygon><polygon points="91.72 63.94 80.72 74.94 80.72 69.15 85.93 63.94 91.72 63.94" style="fill:#ebebeb"></polygon><polygon points="166.03 70 166.03 71.94 117.96 120.01 116.02 120.01 166.03 70" style="fill:#ebebeb"></polygon><polygon points="118.89 63.94 80.72 102.11 80.72 100.17 116.95 63.94 118.89 63.94" style="fill:#ebebeb"></polygon></g></g><g id="freepik--Ribbon--inject-69"><path d="M234.63,100.91A100.16,100.16,0,0,0,209.76,93c-27.49-4.86-50.09,4-64.31,12.46a89.44,89.44,0,0,0-16.38,12.1s-1.21-21.88,3.3-33.76c9.78-11.7,22.28-23.82,35.88-31.53l.07,0h0s0,0,0,0a81.26,81.26,0,0,1,8-3.67,23,23,0,0,1,13.93-.5l.19,0a32,32,0,0,1,3.22,1l.13,0c8.17,3.15,21.68,12.35,32.7,23a0,0,0,0,1,0,0C232.36,81.82,234.63,100.91,234.63,100.91Z" style="fill:#FFC727"></path><g style="opacity:0.2"><path d="M234.63,100.91A100.16,100.16,0,0,0,209.76,93c-27.49-4.86-50.09,4-64.31,12.46a89.44,89.44,0,0,0-16.38,12.1s-1.21-21.88,3.3-33.76c9.78-11.7,22.28-23.82,35.88-31.53l.07,0h0s0,0,0,0a81.26,81.26,0,0,1,8-3.67,23,23,0,0,1,13.93-.5l.19,0a32,32,0,0,1,3.22,1l.13,0c8.17,3.15,21.68,12.35,32.7,23a0,0,0,0,1,0,0C232.36,81.82,234.63,100.91,234.63,100.91Z"></path></g><path d="M212.17,234.49c-1,1.45-2.15,2.88-3.27,4.31-11.23,14.3-25.2,27-40.21,38.12-54,40-121.6,59.68-122.93,60.06C70,321.64,84.69,291.42,84.69,291.42,52.13,282.05,40,268.35,40,268.35c39.92-5.93,71.23-17,95.57-31.33a161.09,161.09,0,0,0,41.19-34.12,148,148,0,0,0,31.38-62.32A115.2,115.2,0,0,0,209.76,93c-5.1-28.27-19.49-45-19.49-45l.19,0a17.59,17.59,0,0,1,3.22,1l.13,0c8.17,3.15,21.68,12.35,32.7,23a0,0,0,0,1,0,0c8.74,8.43,15.92,17.78,17.67,25.75C248.41,117,255.25,176.31,212.17,234.49Z" style="fill:#FFC727"></path><path d="M217.08,227.55q-2.34,3.48-4.91,6.94c-1,1.45-2.15,2.88-3.27,4.32-11.23,14.28-25.2,27-40.21,38.11-4.74,3.51-9.59,6.87-14.48,10.06-11.67-12.36-27.66-29.38-37.6-40.13a194.91,194.91,0,0,0,19-9.83,161.06,161.06,0,0,0,41.19-34.12,143.71,143.71,0,0,0,10.72-14.24Z" style="opacity:0.1"></path><path d="M460,208.25C427.42,219,412.2,228.58,412.2,228.58s36.11,15.68,47,41.95c0,0-38.28-10.34-65.44-1.41-20.94,6.9-66.12,41.05-127.94,41.05-31.88,0-66.43-6.6-97.15-33.25-11.71-10.14-22.86-23.19-33.1-39.9q-2.46-4-4.86-8.34c-29.22-52.62-22.16-104.18-18.79-113.86,1.79-5.13,9.36-17.82,20.43-31,9.78-11.7,22.28-23.82,35.88-31.53l.09-.05h0c-.62.82-17.51,23.15-22.88,53.23a92.56,92.56,0,0,0,2.54,45,161.39,161.39,0,0,0,28.79,52.46,148.48,148.48,0,0,0,35.39,31.59c17.61,11.1,37.07,17.44,56.62,17,51.76-1.27,79.28-33,123.22-43.76C426,199.39,460,208.25,460,208.25Z" style="fill:#FFC727"></path></g><g id="freepik--Plant--inject-69"><path d="M111.79,354.09c15,14.7,17.53,37.43,14.36,57.34-.08.45-.78.33-.78-.1,0-4.53.14-9,.13-13.5-.09-.2-.15-.4-.24-.6-3.91-2.85-7.51-6.07-9.75-10.48-2.5-4.93-3.49-10.49-5.41-15.64-.17-.49.35-.34.7-.09,9.13,6.73,12,14,14.66,23.66a81.39,81.39,0,0,0-1.59-15.08c-2-9.18-5.88-18.29-12.48-25.11C111.14,354.23,111.53,353.83,111.79,354.09Z" style="fill:#263238"></path><path d="M109,355.81c-2.58.08-4.2,4.21-6.21,5.41a1.94,1.94,0,0,1-2.85-.44c-2-2.79.74-6.22,3.31-8.14-1.84.75-3.37,2.08-5.35,2.46a1.87,1.87,0,0,1-2.42-1.45c-.87-3.79,3.89-5.48,7.16-5.56C101,347,96.49,344,98.9,342.53s7.76,2.8,9.5,4.21c2.55,2.07,5.59,5.16,5.71,8.4C114.26,358.92,111,356.6,109,355.81Z" style="fill:#FFC727"></path><path d="M109,355.81c-2.58.08-4.2,4.21-6.21,5.41a1.94,1.94,0,0,1-2.85-.44c-2-2.79.74-6.22,3.31-8.14-1.84.75-3.37,2.08-5.35,2.46a1.87,1.87,0,0,1-2.42-1.45c-.87-3.79,3.89-5.48,7.16-5.56C101,347,96.49,344,98.9,342.53s7.76,2.8,9.5,4.21c2.55,2.07,5.59,5.16,5.71,8.4C114.26,358.92,111,356.6,109,355.81Z" style="opacity:0.1"></path><path d="M109.72,356.44c-3.31-1.5-9.65.66-10.19-.59-1.09-2.54,4-4.29,6.71-4.62-2.52-.69-7.34-1.77-7.2-4.2.19-3,7.41-.42,11.06,2.38,4.61,3.54,4.58,6.94,3.82,7.63C112.87,358,110.26,356.69,109.72,356.44Z" style="fill:#FFC727"></path><path d="M146,352.64c-15.56,14.11-18.94,36.73-16.54,56.75.07.45.77.36.79-.07.17-4.53.2-9,.39-13.5.09-.2.16-.39.25-.59,4-2.7,7.75-5.78,10.15-10.1,2.69-4.83,3.88-10.35,6-15.42.19-.48-.34-.36-.69-.12-9.38,6.38-12.56,13.51-15.55,23.09a80.37,80.37,0,0,1,2.16-15c2.32-9.11,6.57-18.06,13.42-24.62A.28.28,0,0,0,146,352.64Z" style="fill:#263238"></path><path d="M148.72,354.46c2.58.18,4,4.37,6,5.65a1.93,1.93,0,0,0,2.86-.34c2.1-2.71-.5-6.24-3-8.26,1.81.83,3.28,2.21,5.25,2.67a1.88,1.88,0,0,0,2.47-1.36c1-3.76-3.68-5.62-6.94-5.83,1.63-1,6.28-3.85,3.92-5.42s-7.86,2.51-9.65,3.85c-2.63,2-5.79,4.95-6,8.18C143.32,357.37,146.71,355.17,148.72,354.46Z" style="fill:#FFC727"></path><path d="M148.72,354.46c2.58.18,4,4.37,6,5.65a1.93,1.93,0,0,0,2.86-.34c2.1-2.71-.5-6.24-3-8.26,1.81.83,3.28,2.21,5.25,2.67a1.88,1.88,0,0,0,2.47-1.36c1-3.76-3.68-5.62-6.94-5.83,1.63-1,6.28-3.85,3.92-5.42s-7.86,2.51-9.65,3.85c-2.63,2-5.79,4.95-6,8.18C143.32,357.37,146.71,355.17,148.72,354.46Z" style="opacity:0.1"></path><path d="M148,355.06c3.36-1.37,9.61,1,10.2-.2,1.19-2.5-3.81-4.43-6.53-4.88,2.54-.58,7.41-1.48,7.35-3.92-.06-3-7.38-.7-11.14,2-4.74,3.35-4.84,6.76-4.1,7.47C144.74,356.47,147.4,355.29,148,355.06Z" style="fill:#FFC727"></path><path d="M130.06,389.91a152.59,152.59,0,0,1-4.83,22.31.56.56,0,0,1-1.09-.22c1-6.87,2.89-13.62,3.91-20.5a103.73,103.73,0,0,0,1.2-21.05c-.66-11.58-3.81-23.91-11.37-33-.16-.21.19-.52.36-.32C133.38,354.8,131,376.45,131,378.38c2.14-7.3,4.35-15.68,12.45-23.12.35-.32.63-.17.57.38-1.45,13.55-5.22,20.63-13.08,27.87C130.68,385.66,130.4,387.8,130.06,389.91Z" style="fill:#263238"></path><path d="M117.75,339.5c-2.73-1.21-6.48,2.26-9.18,2.5a2.24,2.24,0,0,1-2.73-1.9c-.67-3.89,3.9-6.08,7.54-6.78-2.29-.14-4.55.47-6.79-.13a2.15,2.15,0,0,1-1.78-2.72c1-4.38,6.79-3.73,10.22-2.17-1.09-1.94-4.29-7.33-1-7.64s6.65,6.81,7.74,9.15c1.61,3.43,3.21,8.18,1.69,11.6C121.67,345.4,119.41,341.33,117.75,339.5Z" style="fill:#FFC727"></path><path d="M117.75,339.5c-2.73-1.21-6.48,2.26-9.18,2.5a2.24,2.24,0,0,1-2.73-1.9c-.67-3.89,3.9-6.08,7.54-6.78-2.29-.14-4.55.47-6.79-.13a2.15,2.15,0,0,1-1.78-2.72c1-4.38,6.79-3.73,10.22-2.17-1.09-1.94-4.29-7.33-1-7.64s6.65,6.81,7.74,9.15c1.61,3.43,3.21,8.18,1.69,11.6C121.67,345.4,119.41,341.33,117.75,339.5Z" style="opacity:0.1"></path><path d="M118.2,340.54c-2.67-3.22-10.34-4.17-10.27-5.74.15-3.19,6.29-2.45,9.29-1.42-2.27-2-6.73-5.53-5.35-8,1.68-3,7.89,3.3,10.27,8,3,6,1.26,9.51.12,9.83C120.71,343.72,118.64,341.07,118.2,340.54Z" style="fill:#FFC727"></path><path d="M140,394l6.68,51H106.07c.84-4.52,8.4-51.07,8.4-51.07Z" style="fill:#FFC727"></path></g><g id="freepik--Character--inject-69"><path d="M364.09,329s0,.09-.07.25-.06.26-.11.44c-.21.84-.62,2.43-1.19,4.68-1.25,4.91-3.3,13-5.9,23.16-.29,1.1-.57,2.23-.87,3.38-.12.53-.27,1.06-.4,1.59-4.08,16-9.22,36.23-14.62,57.43-.09.38-.19.76-.29,1.14-.68,2.66-1.35,5.32-2,8l-.07.29h0l-.07.3c-1.3,5.1-2.6,10.23-3.91,15.35h-77c3.25-11.62,6.55-23.32,9.75-34.58,5.3-18.73,10.3-36.25,14.3-50.21,4.46-15.54,7.68-26.66,8.67-30.1a0,0,0,0,0,0,0c.2-.72.31-1.09.31-1.09Z" style="fill:#f7a9a0"></path><path d="M338.46,429.65S264.32,410.06,262.94,409s27.67-79.78,27.67-79.78h73.48Z" style="fill:#263238"></path><path d="M339.11,415.76c-22.06-7.29-44.42-13.74-67-19.16a.22.22,0,0,0-.13.41c22,7.36,44.42,13.73,67,19.23A.25.25,0,0,0,339.11,415.76Z" style="fill:#455a64"></path><path d="M402.13,445H328.41c-.23-5.82-.44-11.22-.62-16,0-.11,0-.22,0-.32,0-.65,0-1.29-.08-1.92,0-.35,0-.69,0-1s0-.91-.06-1.36,0-1.08-.06-1.6-.05-1.32-.07-1.95c0-1.06-.09-2.05-.12-3,0-.4,0-.78,0-1.16s0-.78-.05-1.15c0-.1,0-.2,0-.3,0-.71-.05-1.38-.08-2s0-1-.05-1.38a8,8,0,0,0,0-.87V411c-.05-1.16-.07-1.78-.07-1.78l-.15-.09c-.44-.27-.88-.53-1.31-.77,0,0,0,0-.06,0l-.83-.49-.42-.25-1.44-.81c-.87-.49-1.72-.95-2.54-1.39l-2-1.08-1.88-1h0l-1.75-.87-1.62-.77c-.31-.16-.62-.3-.91-.43l-.79-.37c-2-.89-3.47-1.5-4.41-1.86-.72-.28-1.12-.42-1.17-.45-.18-.49-.35-1-.53-1.5-.58-1.7-1.14-3.45-1.66-5.21-1.56-5.2-2.92-10.66-4.08-16.11-.39-1.81-.75-3.62-1.11-5.42-.63-3.28-1.19-6.52-1.69-9.64-2.56-16-3.5-29.33-3.64-31.43,0-.12,0-.21,0-.25v0l71.79,0H393.1s.28,3.52.78,9.7c0,.63.1,1.28.14,2,.3,3.64.64,8,1,13,.05.69.11,1.38.16,2.09q.3,3.79.64,8c.13,1.64.26,3.33.39,5.06.06.64.1,1.27.16,1.92q.44,5.68.92,11.87c.84,10.83,1.76,22.66,2.71,34.89,0,.18,0,.37,0,.56q.36,4.71.72,9.46C401.24,433.32,401.69,439.17,402.13,445Z" style="fill:#f7a9a0"></path><path d="M329,437.94q-.07-3.56-.26-7.1c-.25-4.78-.53-9.55-.95-14.32-.24-2.69-.38-5.4-.72-8.09a.12.12,0,0,0-.24,0c-.06,2.37,0,4.74.08,7.11s0,4.73.11,7.1c.16,4.77.41,9.56.76,14.32.1,1.33.23,2.66.35,4a18.73,18.73,0,0,0,.57,3.88.08.08,0,0,0,.15,0,18.22,18.22,0,0,0,.19-3.39C329,440.27,329,439.1,329,437.94Z" style="fill:#263238"></path><path d="M293,329s2.13,35.14,10.54,62.88c.66,2.3,1.39,4.56,2.17,6.71,0,0,8.43,2.94,21.33,10.62,0,0,.31,7.85.76,19.86,21.44,1.08,71.49-.47,77.69-2.2C401.58,376,393.11,329,393.11,329Z" style="fill:#263238"></path><path d="M336.29,413c-3.37-2.34-7-4.3-10.58-6.32s-7.37-4-11.17-5.82a182.84,182.84,0,0,0-23.09-8.38c-.2-.06-.33.26-.13.34,7.52,3.24,14.82,6.94,22.31,10.27,3.77,1.67,7.56,3.27,11.33,4.93s7.45,3.54,11.25,5.13A.09.09,0,0,0,336.29,413Z" style="fill:#455a64"></path><path d="M315.7,376.18c-.1-3.69-.36-7.38-.54-11.06-.43-8.71-.77-17.47-1.58-26.15a.27.27,0,0,0-.54,0c-.11,6.73.15,13.49.29,20.22.07,3.37.17,6.74.26,10.11a94.33,94.33,0,0,1,.06,9.66c-.18,2.43-.71,7.14-3.88,7.44-3,.27-4.62-2.95-5.37-5.31-1.89-6-2.56-12.47-3.17-18.71-.37-3.69-.73-7.37-1-11.08a100.63,100.63,0,0,1-.37-11.38c0-.24-.36-.22-.37,0-.21,3.81-.73,7.59-.86,11.41s-.14,7.61.11,11.39.54,7.3,1.09,10.9a38.84,38.84,0,0,0,2.34,9.63c1.1,2.55,3,4.9,5.85,5.46a5.61,5.61,0,0,0,1.06.11c0,.78.14,1.57.2,2.34.09,1.22.24,2.44.4,3.65a27.05,27.05,0,0,0,.75,3.53,13.13,13.13,0,0,0,1.24,3.37.18.18,0,0,0,.34-.1,16.25,16.25,0,0,0-.29-3.48c-.16-1.19-.33-2.39-.57-3.56s-.46-2.31-.69-3.46c-.16-.77-.27-1.57-.42-2.35a5.66,5.66,0,0,0,4.23-3.33C315.67,382.62,315.77,379.27,315.7,376.18Z" style="fill:#455a64"></path><path d="M327.16,408.43a.14.14,0,0,0-.28,0c-.09,1.7-.07,16.94.58,20.2a.2.2,0,0,0,.38,0C328.34,425.35,327.39,410.12,327.16,408.43Z" style="fill:#455a64"></path><path d="M401,417.48c-23.23.14-46.48,1.17-69.62,3.25a.22.22,0,0,0,0,.43C354.58,421.1,377.83,420,401,418A.26.26,0,0,0,401,417.48Z" style="fill:#455a64"></path><path d="M395.61,374.05c-5.28.37-10.5,1.05-15.8.42a27.51,27.51,0,0,1-13.75-5.39c-8.71-6.76-12.53-17.81-14.89-28.18a.19.19,0,0,0-.37.05c1,9,2.92,18.3,8.73,25.54a28,28,0,0,0,9.26,7.63A27.22,27.22,0,0,0,381,376.64a59,59,0,0,0,14.66-2A.31.31,0,0,0,395.61,374.05Z" style="fill:#455a64"></path><path d="M280.24,130.56c5.16-3.25,24.75-10.88,40.6-13.65,7.68-1.35,30.17-2.86,31.65,3s-5.05,6.85-5.05,6.85,9.6.78,10.56,6.77-9.26,7.26-9.26,7.26,9.8,1.52,10.33,7.57-10,5.6-10,5.6,9,1,7.36,6.14c-2,6.21-18.43,2.54-26.86,4.46-1.91.43-38.15,11.56-38.15,11.56Z" style="fill:#f7a9a0"></path><path d="M349,154c-12.09-2.67-17.84-1.74-29.31,2.38-.22.09-.4-.23-.17-.34,10.86-5.06,17.91-7.26,29.64-2.62C349.7,153.67,349.54,154.15,349,154Z" style="fill:#263238"></path><path d="M349.26,140.7c-12.8-1.68-19.05-.73-31.37,2.71-.18.05-.28-.24-.11-.31,11.81-4.38,18.89-6.42,31.46-3.06C349.81,140.19,349.84,140.78,349.26,140.7Z" style="fill:#263238"></path><path d="M346.38,126.63c-12.5-.73-19.4,0-30.94,4.89a.23.23,0,0,1-.2-.41c11.28-6.12,19.88-7.11,31.12-4.86C347.13,126.4,347.17,126.68,346.38,126.63Z" style="fill:#263238"></path><path d="M284.41,181.4s15.35,2.24,22.31,1.74,32.21-11.93,30-17.53c-2.78-7.22-18.66-3.49-26.2-.65,0,0-6.43-16.72-18.4-16.51S284.41,181.4,284.41,181.4Z" style="fill:#f7a9a0"></path><path d="M335.35,163.88c-7.29-4.75-16.94-.39-24.46,1.82a.71.71,0,0,1-.95-.69c-3.16-6.83-9.61-15.53-17.43-16.91a.18.18,0,0,1,0-.36c8.59.34,15.62,8.37,18.61,16.07,7.67-2.39,17.55-6.34,24.25,0C335.44,163.85,335.4,163.91,335.35,163.88Z" style="fill:#263238"></path><path d="M287,258.28c1.07.06,6.07.36,13.37.82,2.73-4.56,6-12.7,5.19-24.42-.16-1.94,4,9.33,1.6,24.84,14.12.87,33.33,2,50.11,2.89.57-6.54,1.39-12.58,1.39-12.58a72.09,72.09,0,0,0,2.26,12.78c2.29.14,4.54.23,6.7.34-.11-10.2,2.29-27.87,2.29-27.87a89.73,89.73,0,0,0,7.25,28.3c10.66.44,17.69.53,17.26,0-15.45-19.1-3.24-29.31-7.22-45.77-4.77-19.72-21.48-23.44-20.44-38.08.82-11.91,3.11-33.5-11.78-38.68,0,0-11.75-13.88-31.28-7.21-24.14,8.23-16.09,45.36-18,52.78-2.71,10.6-7.94,14.18-12.19,26.23s1,20.58,1.3,29S284.31,258.16,287,258.28Z" style="fill:#263238"></path><path d="M395,260.76a41.48,41.48,0,0,1-4.79-10.63c-1.08-3.68-.41-7.39.46-11.2a112.81,112.81,0,0,0,2.4-11.71,31.13,31.13,0,0,0-.71-12.32,27.49,27.49,0,0,0-6-10.82,71.77,71.77,0,0,0-8.87-8.12c-3-2.52-6-5-8.18-8.16A21.41,21.41,0,0,1,365.38,177,20,20,0,0,0,368,188.57a40.39,40.39,0,0,0,7.84,9.15,89.8,89.8,0,0,1,8.22,8.22,25.87,25.87,0,0,1,5.21,9.79,30.61,30.61,0,0,1,.71,11.15c-.36,3.81-1.22,7.62-1.88,11.56a40.14,40.14,0,0,0-.61,6.06,17.5,17.5,0,0,0,1.12,6.11A33.7,33.7,0,0,0,395,260.76Z" style="fill:#263238"></path><path d="M309.71,146.83c-2,4.45-2.89,9.33-3.77,14.11s-1.33,9.65-1.83,14.48l-.79,7.2a36.07,36.07,0,0,1-1.34,6.86c-1.35,4.42-4,8.22-7,12.08a56.8,56.8,0,0,0-4.12,6.22,34.32,34.32,0,0,0-2.92,7,51,51,0,0,0-1.32,7.4,31.28,31.28,0,0,0,.13,7.55c.34,2.5,1,4.88,1.45,7.2a37.42,37.42,0,0,1,.86,7c.18,4.66-2.44,9.2-6.31,12.09a15.15,15.15,0,0,0,7.82-12,37,37,0,0,0-.35-7.44c-.33-2.45-.86-4.8-1-7.12a38.68,38.68,0,0,1,1.62-13.84,33.72,33.72,0,0,1,2.74-6.35,51.64,51.64,0,0,1,4-5.85c1.42-1.95,2.91-3.94,4.2-6.12a30.45,30.45,0,0,0,3.08-7,39.06,39.06,0,0,0,1.24-7.44c.23-2.44.36-4.87.49-7.29.28-4.85.5-9.68.91-14.49A69.92,69.92,0,0,1,309.71,146.83Z" style="fill:#263238"></path><path d="M324.13,239.06C308,241,223.28,231.09,215,203.35s39.31-60.19,68.92-74.72c5.72-2.81,17.39,42.3,8.61,49.38-8.63,7-23.79,14.24-22.38,15.34S304,207,329.76,221.14C344.74,229.37,336.52,237.6,324.13,239.06Z" style="fill:#f7a9a0"></path><path d="M272.34,239.7l10.59-40.88s30.48,11.73,47.23,20.83,18.92,18.52-8.9,20.11A402.21,402.21,0,0,1,272.34,239.7Z" style="fill:#37474f"></path><path d="M283.54,237.48q2.23-8.26,4-16.65c.59-2.75,1.23-5.49,1.77-8.26s.93-5.74,1.49-8.6c0-.2-.26-.29-.31-.08-.64,2.73-1.48,5.42-2.14,8.15s-1.25,5.67-1.87,8.5q-1.83,8.39-3.24,16.87C283.27,237.57,283.5,237.64,283.54,237.48Z" style="fill:#263238"></path><path d="M276.09,360l7.11-13.47,8.11-44.94S280,282,286.58,267.85c3.3-7.15,28.91-42.09,41.1-50.93,11.43-8.3,28,.58,34.2,7.08,23.8,25,30.47,72.18,39,139.92Z" style="fill:#455a64"></path><path d="M344.27,270.37a32.23,32.23,0,0,1-3.21,4c-5,5.29-10.93,8.38-12.41,8.49l3.4-5.14-3.51-1.93a34.31,34.31,0,0,0,8.68-5.74,25.75,25.75,0,0,0,3.32-3.69A24.82,24.82,0,0,0,344.27,270.37Z" style="fill:#FFC727"></path><path d="M340.54,266.32a25.75,25.75,0,0,1-3.32,3.69c-2.63-3.48-4.58-7.51-4.68-11.9-.1-4.21,1.82-8.51,6.28-9.36-1.56,1.57-1.85,5-1.85,5A17.16,17.16,0,0,0,340.54,266.32Z" style="fill:#FFC727"></path><path d="M348.47,257.75a22.29,22.29,0,0,1-4.2,12.62,24.82,24.82,0,0,1-3.73-4.05,16.57,16.57,0,0,0,3.21-12.4c0-3.5-1.51-5.06-1.6-5.15C346.39,249.71,348.47,254.14,348.47,257.75Z" style="fill:#FFC727"></path><path d="M349.18,277.5l3.25,5.1a32.74,32.74,0,0,1-11.6-8,36.5,36.5,0,0,0,3.44-4.2,36.35,36.35,0,0,0,8,5.25Z" style="fill:#FFC727"></path><path d="M343.75,253.92c-.34-2.27-6.52-1.92-6.78-.17,0,0,.29-3.43,1.85-5h0a8.74,8.74,0,0,1,1.66-.16,8.06,8.06,0,0,1,1.67.18C342.24,248.86,343.75,250.42,343.75,253.92Z" style="fill:#FFC727"></path><path d="M346.94,223.36c.48,11.08,40.74,109.33,40.64,113.37,0,0,46.63,26.47,52.15.6s-46.26-77.49-68.25-103.16C362.5,223.69,346.36,209.85,346.94,223.36Z" style="fill:#f7a9a0"></path><path d="M402.17,264.66l-39.8,9.77s-12.76-29.71-15.6-44.16c-2.72-13.84,2.61-22.08,20.53-4C389.38,248.5,402.17,264.66,402.17,264.66Z" style="fill:#37474f"></path><path d="M392.6,258.47a64.31,64.31,0,0,0-7.94,1.39c-2.62.54-5.24,1.13-7.84,1.72s-5.27,1.21-7.88,1.87-5.31,1.51-8,2.26c-.15,0-.09.3.07.27,2.64-.47,5.3-.86,7.94-1.4s5.23-1.14,7.85-1.74,5.26-1.21,7.87-1.87a65.78,65.78,0,0,0,8-2.27A.12.12,0,0,0,392.6,258.47Z" style="fill:#263238"></path><path d="M346.1,351.16c-19.67-5.87-40-14.93-53-31.94a10.59,10.59,0,0,1-2.36-6.53c-6-7.52-4.22-12.6-4.22-12.6-3.43-8.71-.92-13.66-.92-13.66s-6.93-8.91-2.24-14c5.24-5.71,13.94,7.91,23.31,12.48,21.46,10.46,54.89,19.32,61.38,21.72Z" style="fill:#f7a9a0"></path><path d="M321.44,311.68c-6.25-3.2-12.48-6.18-18.27-10.22-6.35-4.42-11.72-9.75-17.32-15a.18.18,0,0,0-.27.25C294.2,297.85,308,307.32,321.3,312,321.62,312.08,321.76,311.84,321.44,311.68Z" style="fill:#263238"></path><path d="M317,325.55c-5.91-3.45-16.26-9.59-30.33-25.62-.05-.05-.15,0-.11.08,7.75,11.62,17.78,19.86,30.28,25.82C317.24,326,317.41,325.78,317,325.55Z" style="fill:#263238"></path><path d="M314.49,333c-9.83-6.25-15.23-11.44-23.69-20.27,0-.05-.14,0-.1.08,8.56,11,12.91,14.08,23.63,20.56C314.69,333.55,314.88,333.21,314.49,333Z" style="fill:#263238"></path><path d="M333.31,295.88c3.34.26,3.49-1.49-.89-5.51s-25.12-16.22-20.25-23.09,33.88,10.75,40.66,18S368,306.64,368,306.64C361.7,304.34,345.8,300.23,333.31,295.88Z" style="fill:#f7a9a0"></path><path d="M368,306.64c-6.13,1.27-30.86,42.22-21.94,44.52,42,10.8,78,.26,85.46-3.94,9.79-5.5,10.05-19.52,5.59-25.36C430.68,313.39,374.11,305.38,368,306.64Z" style="fill:#f7a9a0"></path><path d="M416.66,313.35c-21.49-7.54-48.39-7.15-48.44-7.16-.43-.08-1,.66-.75.7,4.4.8,32.77,3.08,48.93,7C416.55,313.94,416.81,313.4,416.66,313.35Z" style="fill:#263238"></path><path d="M347.61,217.11c-.45,2-12.58,27.45-25.69,25.36-6.26-1,4.11-27.16,4.11-27.16l-4-17.64,22.13-14.1S347.79,216.28,347.61,217.11Z" style="fill:#f7a9a0"></path><path d="M345.43,195.06a34.49,34.49,0,0,1-19.63,19.27L322,197.67l22.13-14.1Z" style="fill:#263238"></path><path d="M299.62,169.59c-5,29.21,12,35.48,18.26,36.55,5.72,1,25.32,3.54,33.28-25s-4-40.09-17-43S304.6,140.38,299.62,169.59Z" style="fill:#f7a9a0"></path><path d="M303.75,155.38c-.89,2.28-1.76,4.57-2.48,6.91a55.54,55.54,0,0,0-1.55,6.9,69,69,0,0,0-.89,6.89,52.51,52.51,0,0,0-.05,7.29.08.08,0,0,0,.16,0c0-1.23.52-6,.64-7.08.24-2.38.58-4.77,1-7.13s1-4.62,1.48-6.92,1.07-4.59,1.8-6.83A.05.05,0,0,0,303.75,155.38Z" style="fill:#263238"></path><path d="M350.89,179c-7.05-.51-6.07-11.6-6.07-11.6s-7.93-1.39-7.45-14.32c0,0-4.48,7.46-15.43,8.15-2.32.15,5.85-5.15,5.85-5.15s-9.89,7.56-26.7,3c-1.18-.32,2.88-18.12,16.78-23.15s25.68-.56,33.27,8.58a16.28,16.28,0,0,1,7.55,13.38C359,167.28,353.62,179.23,350.89,179Z" style="fill:#263238"></path><path d="M346.17,180.55s7.2-8.69,11.2-6-2,15.6-7,17a5,5,0,0,1-6.47-3.23Z" style="fill:#f7a9a0"></path><path d="M355.57,178.18a.07.07,0,0,1,0,.13c-3.56,1.11-5.64,4.16-7.18,7.36,1.13-1.19,2.58-1.77,4.19-.41.08.07,0,.2-.11.18a3.08,3.08,0,0,0-3.47.79,14.89,14.89,0,0,0-1.84,2.6c-.19.29-.73.08-.59-.26,0,0,0,0,0-.08C346.9,184.09,350.82,178.23,355.57,178.18Z" style="fill:#263238"></path><path d="M308.74,165.2a20.15,20.15,0,0,0,2-.21,3.3,3.3,0,0,0,2-.62,1.05,1.05,0,0,0,.13-1.28,2.61,2.61,0,0,0-2.5-.87,3.9,3.9,0,0,0-2.54,1.1A1.13,1.13,0,0,0,308.74,165.2Z" style="fill:#263238"></path><path d="M329,167a19.25,19.25,0,0,1-1.95-.63,3.35,3.35,0,0,1-1.86-1,1.06,1.06,0,0,1,.13-1.28,2.61,2.61,0,0,1,2.63-.35,3.92,3.92,0,0,1,2.26,1.6A1.13,1.13,0,0,1,329,167Z" style="fill:#263238"></path><path d="M324,174c0-.07.15.12.13.2-.31,2-.34,4.33,1.39,5.22.05,0,0,.13,0,.11C323.35,179,323.42,175.86,324,174Z" style="fill:#263238"></path><path d="M326.09,172.16c3.25.16,2.69,6.65-.32,6.5S323.37,172,326.09,172.16Z" style="fill:#263238"></path><path d="M327.34,172.61c.53.42,1,1.12,1.71,1.24s1.44-.48,2-1.09c.06-.06.11,0,.11.09-.09,1.24-.68,2.48-2,2.55s-2-1.12-2.21-2.39C326.89,172.77,327.12,172.44,327.34,172.61Z" style="fill:#263238"></path><path d="M311.87,173c0-.08-.16.08-.17.17-.09,2-.54,4.31-2.41,4.83-.06,0-.07.12,0,.11C311.54,177.93,312.1,174.88,311.87,173Z" style="fill:#263238"></path><path d="M310.24,170.71c-3.21-.51-4,6-1,6.43S312.94,171.13,310.24,170.71Z" style="fill:#263238"></path><path d="M308.84,171c-.55.28-1.13.85-1.74.81s-1.16-.79-1.53-1.52c0-.07-.1,0-.11.06-.18,1.23.08,2.57,1.24,3s2-.62,2.42-1.82C309.2,171.23,309.06,170.86,308.84,171Z" style="fill:#263238"></path><path d="M320.92,190.24c-.5.45-1,1.08-1.75,1.11a5.39,5.39,0,0,1-2.14-.59.07.07,0,0,0-.09.1,2.73,2.73,0,0,0,2.51,1.2,2.15,2.15,0,0,0,1.66-1.72C321.15,190.22,321,190.17,320.92,190.24Z" style="fill:#263238"></path><path d="M313.24,182.15s-.71,3-.85,4.37c0,.14.32.23.8.31a.07.07,0,0,0,.06,0A6.77,6.77,0,0,0,320,185c.11-.13-.06-.29-.19-.22a10.18,10.18,0,0,1-6.32,1.16c-.06-.41,1.39-5,1.17-5.07a12.39,12.39,0,0,0-3.29.41c1.3-6.21,3.59-12.15,4.8-18.35a.2.2,0,0,0-.37-.13c-2.83,6.07-4.49,13.17-6,19.55C309.64,183.11,312.65,182.34,313.24,182.15Z" style="fill:#263238"></path><path d="M314.21,186.16a7.33,7.33,0,0,0,2.57,2.65,3.27,3.27,0,0,0,2,.4c1.47-.17,1.69-1.47,1.59-2.63a7.86,7.86,0,0,0-.39-1.8A9.44,9.44,0,0,1,314.21,186.16Z" style="fill:#263238"></path><path d="M316.78,188.81a3.27,3.27,0,0,0,2,.4c1.47-.17,1.69-1.47,1.59-2.63C318.78,186.52,317.12,187.34,316.78,188.81Z" style="fill:#ff9cbd"></path><path d="M354,140.52c3.92,3.12,16,1.72,20.68-4.55,6.41-8.63-4.5-23.42-15.51-18.43S351,138.11,354,140.52Z" style="fill:#263238"></path><path d="M372.43,120.52a21.45,21.45,0,0,1,4.81,9.25,8,8,0,0,1-3.45,8.57,19.37,19.37,0,0,1-4.55,2.34,22.93,22.93,0,0,1-5,1.33A17.84,17.84,0,0,1,354,140.52a15.36,15.36,0,0,0,10.4,2.85,21.34,21.34,0,0,0,5.43-1.13,20.24,20.24,0,0,0,5-2.5,10,10,0,0,0,3.57-4.54,9.41,9.41,0,0,0,.17-5.72A18,18,0,0,0,372.43,120.52Z" style="fill:#263238"></path></g><g id="freepik--Table--inject-69"><polygon points="459.98 445 407.49 445.24 354.99 445.33 250 445.5 145.01 445.33 92.52 445.24 40.02 445 92.52 444.75 145.01 444.67 250 444.5 354.99 444.67 407.49 444.76 459.98 445" style="fill:#263238"></polygon></g></svg>